<svg width="40" height="40" viewBox="0 0 40 40" fill="none" xmlns="http://www.w3.org/2000/svg">
<circle cx="20" cy="20" r="19.4" stroke="#EFF8FE" stroke-width="1.2"/>
<path d="M9.45519 10.1915C9.06519 9.88396 8.49895 9.95521 8.19146 10.3452C7.88396 10.7352 7.95521 11.3014 8.3452 11.6089L30.5448 29.0086C30.9348 29.3161 31.501 29.2449 31.8085 28.8549C32.116 28.4649 32.0448 27.8986 31.6548 27.5912L28.4149 25.0524L28.9323 25.3974C29.2998 25.6412 29.7723 25.6674 30.1661 25.4574C30.5598 25.2474 30.7998 24.8425 30.7998 24.4V14.8001C30.7998 14.3576 30.5561 13.9526 30.1661 13.7426C29.7761 13.5326 29.3036 13.5551 28.9323 13.8026L25.3324 16.2026L24.7999 16.5588V17.2001V22V22.2175L23.5999 21.2763V14.8001C23.5999 13.4764 22.5237 12.4002 21.2 12.4002H12.2714L9.45519 10.1915ZM23.2624 25.6262L9.21144 14.5564C9.20394 14.6351 9.20019 14.7176 9.20019 14.8001V24.4C9.20019 25.7237 10.2764 26.7999 11.6001 26.7999H21.2C22.0775 26.7999 22.8462 26.3274 23.2624 25.6262Z" fill="#EFF8FE"/>
</svg>
