<svg width="18" height="19" viewBox="0 0 18 19" fill="none" xmlns="http://www.w3.org/2000/svg">
<g clip-path="url(#clip0_980_349)">
<path d="M16.3125 9.38007C16.3125 11.3195 15.5421 13.1794 14.1707 14.5508C12.7994 15.9221 10.9394 16.6926 9 16.6926C7.0606 16.6926 5.20064 15.9221 3.82928 14.5508C2.45792 13.1794 1.6875 11.3195 1.6875 9.38007C1.6875 7.44067 2.45792 5.58071 3.82928 4.20935C5.20064 2.83799 7.0606 2.06757 9 2.06757C10.9394 2.06757 12.7994 2.83799 14.1707 4.20935C15.5421 5.58071 16.3125 7.44067 16.3125 9.38007ZM0 9.38007C0 11.767 0.948212 14.0562 2.63604 15.744C4.32387 17.4319 6.61305 18.3801 9 18.3801C11.3869 18.3801 13.6761 17.4319 15.364 15.744C17.0518 14.0562 18 11.767 18 9.38007C18 6.99312 17.0518 4.70393 15.364 3.0161C13.6761 1.32828 11.3869 0.380066 9 0.380066C6.61305 0.380066 4.32387 1.32828 2.63604 3.0161C0.948212 4.70393 0 6.99312 0 9.38007ZM8.15625 4.59882V9.38007C8.15625 9.66132 8.29687 9.92499 8.53242 10.0832L11.9074 12.3332C12.2941 12.5933 12.818 12.4879 13.0781 12.0976C13.3383 11.7074 13.2328 11.1871 12.8426 10.9269L9.84375 8.93007V4.59882C9.84375 4.13124 9.46758 3.75507 9 3.75507C8.53242 3.75507 8.15625 4.13124 8.15625 4.59882Z" fill="#294C65"/>
</g>
<defs>
<clipPath id="clip0_980_349">
<rect width="18" height="18" fill="white" transform="translate(0 0.380066)"/>
</clipPath>
</defs>
</svg>
