<svg width="39" height="16" viewBox="0 0 39 16" fill="none" xmlns="http://www.w3.org/2000/svg">
<path d="M37.8979 10.037L34.822 15.1434C34.3768 15.8828 33.4751 16.195 32.6853 15.8695L26.537 13.3178C25.8108 13.0193 25.3622 12.2481 25.4456 11.4468L25.833 7.4187C21.7339 5.97013 17.2715 5.97013 13.1766 7.4187L13.5628 11.4498C13.6409 12.2541 13.1965 13.0172 12.4737 13.3197L6.31967 15.8731C5.52635 16.1948 4.6257 15.8879 4.17771 15.1434L1.10301 10.0389C0.666563 9.32184 0.768236 8.39452 1.34969 7.78842C11.3566 -2.59644 27.643 -2.59584 37.647 7.78842C38.2303 8.39452 38.3353 9.32184 37.8979 10.037Z" fill="#EFF8FE"/>
</svg>
