<svg width="40" height="40" viewBox="0 0 40 40" fill="none" xmlns="http://www.w3.org/2000/svg">
<circle cx="20" cy="20" r="19.4" stroke="#EFF8FE" stroke-width="1.2"/>
<path d="M9.45521 10.1915C9.06521 9.88396 8.49896 9.95521 8.19146 10.3452C7.88396 10.7352 7.95521 11.3015 8.34521 11.609L30.5452 29.009C30.9352 29.3165 31.5015 29.2452 31.809 28.8552C32.1165 28.4652 32.0452 27.899 31.6552 27.5915L25.704 22.9265C26.274 21.9515 26.6002 20.8152 26.6002 19.6002V18.1002C26.6002 17.6015 26.199 17.2002 25.7002 17.2002C25.2015 17.2002 24.8002 17.6015 24.8002 18.1002V19.6002C24.8002 20.3952 24.609 21.1415 24.2677 21.8015L23.6002 21.2802V13.6002C23.6002 11.6127 21.9877 10.0002 20.0002 10.0002C18.0127 10.0002 16.4002 11.6127 16.4002 13.6002V15.6365L9.45521 10.1915ZM20.9002 26.1402C21.6652 26.0352 22.389 25.799 23.049 25.4577L21.4327 24.1865C20.979 24.3252 20.499 24.4002 20.0002 24.4002C17.349 24.4002 15.2002 22.2515 15.2002 19.6002V19.274L13.4265 17.8752C13.4077 17.9465 13.4002 18.0215 13.4002 18.1002V19.6002C13.4002 22.9415 15.8827 25.7015 19.1002 26.1402V27.4002H17.3002C16.8015 27.4002 16.4002 27.8015 16.4002 28.3002C16.4002 28.799 16.8015 29.2002 17.3002 29.2002H20.0002H22.7002C23.199 29.2002 23.6002 28.799 23.6002 28.3002C23.6002 27.8015 23.199 27.4002 22.7002 27.4002H20.9002V26.1402Z" fill="#EFF8FE"/>
</svg>
