<svg width="28" height="28" viewBox="0 0 28 28" fill="none" xmlns="http://www.w3.org/2000/svg">
<g clip-path="url(#clip0_980_319)">
<path d="M15.3125 -0.000231763C22.318 -0.000231763 28 5.6818 28 12.6873C28 13.4146 27.4148 13.9998 26.6875 13.9998C25.9602 13.9998 25.375 13.4146 25.375 12.6873C25.375 7.13102 20.8687 2.62477 15.3125 2.62477C14.5852 2.62477 14 2.03961 14 1.31227C14 0.584925 14.5852 -0.000231763 15.3125 -0.000231763ZM15.75 10.4998C16.2141 10.4998 16.6592 10.6841 16.9874 11.0123C17.3156 11.3405 17.5 11.7856 17.5 12.2498C17.5 12.7139 17.3156 13.159 16.9874 13.4872C16.6592 13.8154 16.2141 13.9998 15.75 13.9998C15.2859 13.9998 14.8408 13.8154 14.5126 13.4872C14.1844 13.159 14 12.7139 14 12.2498C14 11.7856 14.1844 11.3405 14.5126 11.0123C14.8408 10.6841 15.2859 10.4998 15.75 10.4998ZM14 6.56227C14 5.83492 14.5852 5.24977 15.3125 5.24977C19.4195 5.24977 22.75 8.58024 22.75 12.6873C22.75 13.4146 22.1648 13.9998 21.4375 13.9998C20.7102 13.9998 20.125 13.4146 20.125 12.6873C20.125 10.0295 17.9703 7.87477 15.3125 7.87477C14.5852 7.87477 14 7.28961 14 6.56227ZM6.42578 0.0763307C7.48672 -0.213513 8.59687 0.327893 9.01797 1.34508L11.2055 6.59508C11.5773 7.48649 11.3203 8.52008 10.5711 9.12711L7.875 11.3365C9.69609 15.1865 12.8133 18.3037 16.6633 20.1248L18.8672 17.4287C19.4797 16.6795 20.5078 16.4224 21.3992 16.7943L26.6492 18.9818C27.6664 19.4029 28.2078 20.5131 27.918 21.574L26.6055 26.3865C26.3484 27.3381 25.4844 27.9998 24.5 27.9998C10.9703 27.9998 0 17.0295 0 3.49977C0 2.51539 0.661719 1.65133 1.61328 1.38883L6.42578 0.0763307Z" fill="#EFF8FE"/>
</g>
<defs>
<clipPath id="clip0_980_319">
<rect width="28" height="28" fill="white"/>
</clipPath>
</defs>
</svg>
