<svg width="37" height="36" viewBox="0 0 37 36" fill="none" xmlns="http://www.w3.org/2000/svg">
<path d="M7.30398 13.8691C7.87759 12.1822 8.80877 10.596 10.1199 9.24193C14.7758 4.40589 22.3221 4.40589 26.978 9.24193L28.2519 10.5728H24.5048C23.1862 10.5728 22.121 11.6793 22.121 13.0489C22.121 14.4184 23.1862 15.5249 24.5048 15.5249H34.0029H34.0327C35.3512 15.5249 36.4165 14.4184 36.4165 13.0489V3.14465C36.4165 1.77508 35.3512 0.668599 34.0327 0.668599C32.7141 0.668599 31.6488 1.77508 31.6488 3.14465V7.10633L30.3452 5.74451C23.8269 -1.02595 13.2636 -1.02595 6.74527 5.74451C4.9276 7.6325 3.61649 9.8532 2.81195 12.2287C2.37243 13.5209 3.02799 14.9291 4.2646 15.3856C5.50121 15.8422 6.86446 15.1612 7.30398 13.8768V13.8691ZM2.37988 20.5776C2.00741 20.6937 1.64983 20.9026 1.3593 21.2121C1.06133 21.5216 0.86019 21.893 0.755898 22.2954C0.733549 22.3882 0.711201 22.4888 0.696302 22.5894C0.673953 22.7209 0.666504 22.8525 0.666504 22.984V32.8573C0.666504 34.2268 1.73178 35.3333 3.05033 35.3333C4.36889 35.3333 5.43416 34.2268 5.43416 32.8573V28.9033L6.74527 30.2574C13.2636 37.0201 23.8269 37.0201 30.3377 30.2574C32.1554 28.3694 33.474 26.1487 34.2785 23.781C34.718 22.4888 34.0625 21.0806 32.8259 20.624C31.5892 20.1675 30.226 20.8484 29.7865 22.1329C29.2129 23.8197 28.2817 25.4059 26.9706 26.76C22.3147 31.596 14.7683 31.596 10.1124 26.76L10.105 26.7523L8.83112 25.4291H12.5857C13.9042 25.4291 14.9695 24.3226 14.9695 22.9531C14.9695 21.5835 13.9042 20.477 12.5857 20.477H3.08013C2.96094 20.477 2.84175 20.4848 2.72256 20.5002C2.60337 20.5157 2.49162 20.5389 2.37988 20.5776Z" fill="#EFF8FE"/>
</svg>
