<svg width="240" height="47" viewBox="0 0 240 47" fill="none" xmlns="http://www.w3.org/2000/svg">
<path d="M22.6654 1.3684e-05C18.1861 -0.00495131 13.806 1.34128 10.0793 3.86837C6.35266 6.39546 3.4469 9.98983 1.72974 14.1967C0.0125695 18.4035 -0.438835 23.0338 0.43264 27.5016C1.30412 31.9694 3.4593 36.0739 6.6255 39.2958C9.7917 42.5178 13.8266 44.7123 18.2197 45.6017C22.6128 46.4911 27.1666 46.0355 31.305 44.2924C35.4433 42.5493 38.9802 39.5972 41.4681 35.8095C43.956 32.0219 45.2831 27.5689 45.2814 23.0141C45.2815 16.9133 42.8992 11.0621 38.6584 6.74659C34.4175 2.4311 28.6651 0.00444903 22.6654 1.3684e-05V1.3684e-05ZM37.3095 28.9705H28.523V37.8967H16.8078V28.9705H8.02957V17.0577H16.8078V8.13149H28.523V17.0577H37.3095V28.9705ZM28.0047 8.64179H17.3096V17.568H8.53141V28.4434H17.3096V37.3947H28.0047V28.4434H36.8159V17.568H28.0047V8.64179ZM36.2317 18.1369V27.8913H27.4618V36.8091H17.8773V27.8913H9.08262V18.1369H17.8773V9.2023H27.4618V18.1369H36.2317Z" fill="#62B4F2"/>
<path d="M53.6895 8.40753H76.7251V12.2725H67.3381V37.0601H63.0271V12.2725H53.6895V8.40753Z" fill="#313131"/>
<path d="M89.189 15.8112C90.1468 15.7564 91.1056 15.8978 92.0086 16.2269C92.9117 16.556 93.7405 17.0661 94.4461 17.7269C95.108 18.4504 95.6179 19.3035 95.9446 20.2342C96.2714 21.1648 96.4081 22.1534 96.3465 23.1395V37.0601H92.3893V23.675C92.3893 20.7804 90.9523 19.3331 88.0784 19.3331C87.4113 19.3444 86.7531 19.49 86.1417 19.7614C85.5303 20.0327 84.9778 20.4246 84.5161 20.9143C83.9665 21.5096 83.5428 22.2131 83.2711 22.9815C82.9994 23.7498 82.8855 24.5667 82.9365 25.3816V37.0936H79.0122V8.40753H82.9694V19.1575C83.6436 18.1107 84.5676 17.2548 85.6553 16.6696C86.7429 16.0844 87.9587 15.7891 89.189 15.8112V15.8112Z" fill="#313131"/>
<path d="M119.259 26.8372V28.0084H103.866C103.912 29.7126 104.544 31.3464 105.651 32.6263C106.194 33.1597 106.84 33.5727 107.548 33.8391C108.256 34.1055 109.011 34.2195 109.765 34.174C112.348 34.174 114.037 33.0195 114.833 30.7106H118.823C118.349 32.7118 117.21 34.485 115.598 35.73C113.881 36.9913 111.799 37.6359 109.682 37.5621C108.36 37.6145 107.043 37.3754 105.82 36.8614C104.597 36.3473 103.499 35.5704 102.599 34.5839C100.736 32.4051 99.7722 29.5789 99.9088 26.695C99.7739 23.8114 100.737 20.9858 102.599 18.8062C103.485 17.8228 104.571 17.0472 105.781 16.533C106.992 16.0187 108.298 15.7782 109.608 15.828C110.948 15.7651 112.284 16.0116 113.517 16.5492C114.749 17.0867 115.846 17.9013 116.725 18.9316C118.481 21.1689 119.381 23.9773 119.259 26.8372ZM109.567 19.191C108.867 19.1637 108.168 19.2783 107.511 19.5282C106.854 19.7781 106.253 20.1583 105.742 20.6466C104.676 21.7852 104.028 23.2623 103.907 24.8295H115.211C115.096 23.305 114.475 21.8655 113.45 20.747C112.946 20.2264 112.34 19.8191 111.671 19.5511C111.002 19.2831 110.285 19.1604 109.567 19.191V19.191Z" fill="#313131"/>
<path d="M132.948 15.9785C133.332 15.959 133.716 15.959 134.1 15.9785V19.8016H133.113C131.395 19.6934 129.702 20.2526 128.374 21.366C127.803 21.9401 127.361 22.6326 127.077 23.3963C126.793 24.16 126.674 24.9769 126.729 25.7915V37.0601H122.78V16.2964H126.581V20.0024C127.113 18.7524 128.008 17.6974 129.146 16.9784C130.284 16.2594 131.61 15.9105 132.948 15.9785V15.9785Z" fill="#313131"/>
<path d="M153.211 33.9648H154.322V37.0601C153.679 37.1479 153.03 37.1899 152.381 37.1856C151.387 37.2603 150.396 37.0113 149.55 36.4745C149.222 36.2005 148.953 35.8609 148.759 35.4767C148.565 35.0924 148.451 34.6718 148.423 34.2409C147.047 36.4439 144.831 37.5593 141.776 37.5872C139.864 37.6809 137.98 37.0887 136.453 35.914C135.803 35.3663 135.288 34.6721 134.948 33.8864C134.608 33.1008 134.453 32.2454 134.495 31.3882C134.495 27.6292 137.054 25.482 142.171 24.9466L145.182 24.6287C146.015 24.5765 146.816 24.2865 147.494 23.7921C147.742 23.5704 147.937 23.2938 148.064 22.9834C148.191 22.6731 148.246 22.3373 148.226 22.0018C148.267 21.5753 148.203 21.1452 148.041 20.7497C147.879 20.3542 147.623 20.0056 147.296 19.7347C146.313 19.1825 145.191 18.9381 144.071 19.032C142.84 18.9292 141.609 19.2218 140.55 19.8686C140.155 20.2396 139.841 20.6916 139.63 21.1948C139.418 21.6981 139.314 22.2411 139.324 22.7882H135.367C135.641 18.1425 138.521 15.8168 144.005 15.8112C149.386 15.8112 152.079 17.8525 152.084 21.9349V32.9191C152.109 33.6135 152.471 33.9648 153.211 33.9648ZM142.36 34.4082C143.887 34.4643 145.381 33.9461 146.556 32.9526C147.116 32.4392 147.554 31.804 147.839 31.0942C148.124 30.3845 148.248 29.6185 148.201 28.8534V26.6783C147.451 27.1936 146.572 27.4835 145.667 27.5148L142.821 27.8411C141.645 27.8954 140.507 28.2774 139.53 28.9454C139.2 29.2261 138.939 29.5806 138.766 29.9812C138.593 30.3817 138.514 30.8175 138.534 31.2543C138.512 31.6902 138.588 32.1255 138.756 32.5271C138.925 32.9286 139.181 33.2859 139.505 33.5716C140.329 34.1856 141.341 34.4821 142.36 34.4082V34.4082Z" fill="#313131"/>
<path d="M157.012 8.40753H169.402C172.537 8.40753 174.988 9.2441 176.741 10.9172C177.63 11.7991 178.324 12.863 178.778 14.0384C179.232 15.2139 179.435 16.474 179.373 17.7353C179.432 18.9912 179.227 20.2454 178.773 21.415C178.32 22.5845 177.627 23.6428 176.741 24.5199C174.988 26.193 172.537 27.0296 169.402 27.0296H162.352V37.0685H157.012V8.40753ZM162.352 22.3699H169.164C170.461 22.4591 171.743 22.0366 172.742 21.1903C173.176 20.7369 173.511 20.1955 173.725 19.6016C173.939 19.0078 174.028 18.3747 173.985 17.7437C174.026 17.1115 173.937 16.4776 173.723 15.8826C173.509 15.2875 173.175 14.7446 172.742 14.2886C171.755 13.4184 170.468 12.9822 169.164 13.0756H162.352V22.3699Z" fill="#62B4F2"/>
<path d="M199.431 37.0601H194.445C194.121 36.2622 193.934 35.4131 193.894 34.5504C192.523 36.5638 190.329 37.5704 187.313 37.5704C185.39 37.6635 183.496 37.0718 181.957 35.8973C181.295 35.343 180.769 34.6392 180.422 33.8417C180.075 33.0443 179.916 32.1755 179.958 31.3045C179.958 27.5232 182.568 25.3649 187.79 24.8295L190.875 24.545C191.666 24.4941 192.431 24.2378 193.096 23.8005C193.326 23.6011 193.507 23.3497 193.624 23.0664C193.741 22.7831 193.792 22.4758 193.771 22.1692C193.802 21.8005 193.743 21.4298 193.599 21.0898C193.456 20.7498 193.232 20.451 192.948 20.2199C192.073 19.7287 191.073 19.5132 190.077 19.6009C188.983 19.5046 187.888 19.7654 186.951 20.3454C186.6 20.6676 186.321 21.0615 186.131 21.5013C185.941 21.941 185.845 22.4167 185.848 22.897H180.912C181.208 18.1787 184.269 15.8168 190.093 15.8112C195.77 15.8112 198.606 17.8915 198.6 22.052V33.1199C198.495 34.4875 198.783 35.8567 199.431 37.0601V37.0601ZM188.514 33.923C189.895 33.9855 191.25 33.5233 192.315 32.6263C192.815 32.1461 193.205 31.5601 193.458 30.9096C193.711 30.2591 193.821 29.56 193.779 28.8617V26.9627C193.097 27.4662 192.285 27.7569 191.443 27.7993L188.752 28.1172C187.756 28.1803 186.794 28.5092 185.963 29.0709C185.684 29.324 185.464 29.6386 185.322 29.9908C185.179 30.343 185.117 30.7236 185.141 31.1037C185.111 31.4907 185.169 31.8795 185.312 32.2395C185.455 32.5994 185.678 32.9209 185.963 33.1784C186.703 33.7202 187.604 33.9834 188.514 33.923V33.923Z" fill="#62B4F2"/>
<path d="M210.595 37.6457C204.633 37.6457 201.521 35.2587 201.257 30.4847H206.119C206.13 30.9986 206.245 31.5048 206.457 31.9713C206.67 32.4378 206.975 32.8545 207.354 33.1952C208.335 33.8226 209.488 34.1156 210.644 34.0317C213.337 34.0317 214.684 33.1952 214.684 31.522C214.697 31.1815 214.624 30.8433 214.471 30.5399C214.318 30.2366 214.091 29.9784 213.812 29.7903C212.843 29.2547 211.781 28.9138 210.685 28.7864L208.349 28.3849C203.89 27.632 201.663 25.5405 201.669 22.1106C201.634 21.2161 201.818 20.3268 202.204 19.5223C202.59 18.7179 203.167 18.0234 203.882 17.5011C205.354 16.3884 207.444 15.8279 210.134 15.8279C215.97 15.8279 218.987 18.1759 219.184 22.8719H214.47C214.493 22.3726 214.402 21.8747 214.203 21.4174C214.005 20.9602 213.705 20.556 213.326 20.2367C212.375 19.6508 211.269 19.3763 210.159 19.4503C207.784 19.4503 206.597 20.2562 206.597 21.868C206.588 22.1883 206.659 22.5056 206.803 22.7907C206.946 23.0759 207.159 23.3195 207.419 23.4993C208.219 23.9841 209.111 24.292 210.036 24.4028L212.602 24.8044C215.07 25.2645 216.889 25.9839 218.008 26.9794C218.572 27.5067 219.014 28.1564 219.298 28.8804C219.583 29.6044 219.704 30.3843 219.653 31.1623C219.693 32.1028 219.496 33.038 219.081 33.8797C218.667 34.7213 218.048 35.4416 217.284 35.9726C215.693 37.088 213.463 37.6457 210.595 37.6457Z" fill="#62B4F2"/>
<path d="M230.891 37.6457C224.934 37.6457 221.822 35.2587 221.553 30.4847H226.424C226.432 31.0035 226.546 31.5149 226.76 31.986C226.974 32.4571 227.283 32.8775 227.666 33.2202C228.648 33.8471 229.8 34.1401 230.957 34.0568C233.65 34.0568 234.996 33.2202 234.996 31.5471C235.008 31.2068 234.934 30.8692 234.781 30.5661C234.629 30.2631 234.402 30.0047 234.124 29.8154C233.154 29.2811 232.093 28.9403 230.998 28.8115L228.661 28.41C224.202 27.657 221.973 25.5656 221.973 22.1357C221.939 21.2414 222.124 20.3526 222.51 19.5484C222.896 18.7442 223.472 18.0495 224.186 17.5262C225.667 16.4107 227.751 15.853 230.438 15.853C236.274 15.853 239.291 18.201 239.488 22.897H234.782C234.804 22.397 234.712 21.8987 234.512 21.4414C234.312 20.984 234.01 20.5802 233.63 20.2618C232.679 19.6749 231.573 19.4003 230.463 19.4754C228.094 19.4754 226.901 20.312 226.901 21.8931C226.891 22.2135 226.962 22.5311 227.106 22.8164C227.25 23.1016 227.462 23.3452 227.723 23.5244C228.521 24.0079 229.409 24.3157 230.331 24.4279L232.906 24.8294C235.375 25.2895 237.185 26.009 238.303 27.0045C238.877 27.5267 239.327 28.1744 239.619 28.8989C239.911 29.6234 240.038 30.4059 239.99 31.1874C240.022 32.1278 239.818 33.061 239.396 33.8985C238.974 34.736 238.349 35.4499 237.579 35.9726C236 37.088 233.77 37.6457 230.891 37.6457Z" fill="#62B4F2"/>
</svg>
